<?xml version="1.0" standalone="no"?>
<!DOCTYPE svg PUBLIC "-//W3C//DTD SVG 20010904//EN"
 "http://www.w3.org/TR/2001/REC-SVG-20010904/DTD/svg10.dtd">
<svg version="1.0" xmlns="http://www.w3.org/2000/svg"
 width="100.000000pt" height="76.000000pt" viewBox="0 0 100.000000 76.000000"
 preserveAspectRatio="xMidYMid meet">

<g transform="translate(0.000000,76.000000) scale(0.100000,-0.100000)"
fill="#000000" stroke="none">
<path d="M576 672 c-9 -11 -28 -53 -42 -94 -14 -42 -31 -84 -39 -94 -13 -18
-14 -17 -20 11 -21 92 -37 113 -63 82 -6 -7 -25 -62 -42 -122 -16 -61 -33
-119 -36 -130 l-6 -20 16 20 c9 11 23 45 32 75 36 128 47 160 54 160 5 0 11
-22 15 -49 4 -27 13 -58 20 -68 13 -17 15 -17 39 6 15 14 39 61 57 112 17 49
36 86 40 83 5 -3 9 -40 9 -82 0 -60 5 -84 21 -111 11 -18 22 -31 25 -28 7 7
-17 229 -28 250 -11 22 -31 22 -52 -1z"/>
<path d="M902 347 c-1 -15 -10 -39 -19 -54 -29 -44 -68 -53 -232 -53 -182 0
-252 -18 -396 -104 -51 -31 -100 -56 -108 -56 -26 0 -42 32 -47 94 l-6 61 -8
-47 c-6 -37 -4 -55 10 -85 17 -34 24 -38 61 -41 33 -2 57 6 125 42 137 74 191
87 374 96 130 5 167 10 192 25 39 23 65 75 59 118 -4 30 -4 30 -5 4z"/>
</g>
</svg>
